<?xml version="1.0" encoding="utf-8"?>
<!-- Generator: Adobe Illustrator 25.2.0, SVG Export Plug-In . SVG Version: 6.00 Build 0)  -->
<svg version="1.1" id="Layer_1" xmlns="http://www.w3.org/2000/svg" xmlns:xlink="http://www.w3.org/1999/xlink" x="0px" y="0px"
	 viewBox="0 0 1080 582.7" style="enable-background:new 0 0 1080 582.7;" xml:space="preserve">
<style type="text/css">
	.st0{fill:#FFFFFF;}
</style>
<path class="st0" d="M363.3,279.5c-5.4-16.1-12.8-31.6-22-45.9l-4.4-6.8c-26.3-44.1-61.4-78.9-108.8-100.4
	c-30.7-14-59-7.5-86.3,10.3c-2.3,1.5-4.5,3.2-6.7,4.9c-15.9,12.7-15.6,11.3-8.4,28c3.9,9,5.7,18.9,8.1,28.5
	c6.2,25.3,14.5,50,29.4,71.5c4.9,7,13.4,12.2,21.2,16.4c8.7,4.7,18.7,18.6,18,28.4c-0.7,9-12.6,16.5-24.7,14.6
	c-12-2-22.6-6.9-30.9-16.6c-21.6-25.5-33.2-55.4-40.4-87.5c-2.6-11.6-3.7-23.7-7.3-35c-4-12.4-0.1-22.2,5.8-32.5
	c4.2-7.3,7-15.4,10.3-23.1c14.9-34.9,41.4-51.6,79.3-52.4c34-0.7,61.7,13.9,88.6,32.4c21.6,14.9,40.2,32.6,55.5,53.8
	c0,0.1,0.1,0.1,0.1,0.2c9.8,13.6,18.2,28.1,25.3,43.3l1.9,4.1c7.2,15.5,13.7,31.4,19.3,47.6l4.1,11.8c4.4,12.6,7.6,25.5,9.7,38.7
	c2,12.8,3.8,25.7,3,38.3c-1.9,29.5-7.5,58.8-20.8,85.9c-3.2,6.4-6.5,12.8-8.7,19.6c-6.6,20.2-22.8,32.6-37.6,45.9
	c-2.4,2.2-6.7,3.1-10.1,3.2c-8.6,0.2-13.3,4-14.3,12.6c-1,9.3-10,15.9-19,12.5c-7.3-2.7-9.3,0-10.7,5.9
	c-3.8,15.1-4.4,15.3-19.2,12.1c-1.8-0.4-6.2,2.9-6.5,4.9c-1.1,7.3-5.7,9.1-11.8,10.3c-13.9,2.6-27.8,5.8-41.7,8.5
	c-9.5,1.9-19.1,4.3-28.8,5c-42.6,3.2-82.8-5.3-119.4-27.7C20.8,530.2,2.2,492,8,456.9c0.8-4.7,1.9-9.6,4.3-13.5
	c1.5-2.5,5.9-3.2,8.9-4.7c1.2,2.5,3.4,5,3.3,7.5c-0.2,8.8-0.8,17.7-1.9,26.4c-2.5,20.1,6.7,35.6,20.9,47.5
	c13.2,11.1,27.9,20.9,43.3,28.6c10.2,5.1,22.7,7.1,34.3,7.8c17.8,1,36.1,1.6,53.6-1.4c21.1-3.7,41.6-11.3,62.3-17.4
	c7.1-2.1,14.2-4.5,21-7.5c3.8-1.7,6.6-5.9,10.4-7.1c13.4-4.4,24.1-12,33.3-22.8c2.8-3.3,9.6-3,13.6-5.7c7.5-5,15.3-10.2,21.4-16.8
	c24.4-26.4,40.5-56.9,45.8-92.9c3.6-24.3-0.9-47.6-7.1-70.7c-2-7.6-4.3-15.2-7.9-22.1L363.3,279.5z"/>
<path class="st0" d="M369.4,215"/>
<path class="st0" d="M494.4,278.6c-4,0.6-8.3,2.4-11.2,5c-1,0.9,1,6.7,3.1,9c9.5,10.3,10.8,15.7,4.5,23.7
	c-9.3,11.8-14.7,12.2-27.9,5.3c-16.9-8.8-25.8-23.7-33.3-40c-3.4-7.3-6.6-13.6-16.7-9.9c-6.1,2.3-10.8,6.1-13.5,10.7
	c-4.2,7.2-12.4,11-20.7,10.3l-0.6,0c-6-0.5-11.4-3.4-15.4-7.8c-1.9-2.2-4.2-4-6.5-5.3c-12.2-6.6-12.5-6.1-11.4-19.9
	c-2.1,4.9-4.5,9.6-6.4,14.6c-6.9,17.8-14,35.5-20.2,53.5c-3.6,10.5-5.4,21.5-8.5,32.2c-1.5,5.2-3.6,10.5-6.7,14.8
	c-4.8,6.7-11.2,11.2-22.2,5.7c1.2-6.8,1.5-14.6,4.2-21.5c9.3-23.4,19.3-46.5,29.2-69.7c7.4-17.1,15.4-34,22.6-51.2l18.3-48.2
	c4.2-7.6,8.6-14.4,11.8-21.7c17.3-39.5,30.9-80.2,41.2-122c2.6-10.6,8.1-20.8,13.9-30.2c4.6-7.5,10.4-1,11.5,2.8
	c3.8,12.5,8.9,25.6,8.4,38.3c-1.5,38.2-6,76.2-7.9,114.4c-0.7,14.8,1.9,29.9,4.3,44.6c0.6,3.8,5.8,8.4,9.8,9.8
	c15.6,5.5,31.7,9.9,47.6,14.5c0,0,9.7,2.6,11.3,24.8C508.3,287.4,494.4,278.6,494.4,278.6z M408.8,101.6c-0.8-0.1-1.6-0.1-2.5-0.2
	c-1.3,2.7-3,5.2-4,8c-10.4,29.4-20.8,58.8-30.8,88.4c-1.8,5.3-2.4,11.4-2.1,17.1c0.8,13.3,7.4,18.5,20.7,17
	c5.1-0.6,10.1-2.5,15.1-2.3c10.8,0.5,11.9-4.9,11.1-14c-1.9-21.7-2.8-43.5-4.1-65.2C411.1,134.1,409.9,117.9,408.8,101.6z"/>
<path class="st0" d="M502.7,241c-0.9-15.8-1.5-31.1-2.8-46.2c-1.5-18.3-1.6-36.3,10.6-51.7c2.3-2.9,6.5-7.9,7.7-7.3
	c4.3,2,9.2,5.3,11,9.3c2,4.6,1.3,10.6,1,16c-1.8,28.1-4.9,56.2-5.4,84.4c-0.6,31.1,1.2,62.2,11.8,91.9c2.1,5.8,7.3,10.5,11,15.7
	c3.7-5.8,9.2-11,10.9-17.3c11.4-41.5,16.1-84.1,20.6-126.9c3-28.2,5.2-57.2,20.5-82.7c4.7-7.8,7.7-9.1,15.2-3.6
	c9.2,6.8,13.2,20.9,9.6,33.4c-9,31.6-14.1,63.7-11.8,96.8c0.7,10.4-2.6,21-2.6,31.4c-0.2,28.2,1.9,56.3,10.2,83.6
	c0.7,2.2,3.2,3.8,4.9,5.7c1.7-1.9,4.3-3.6,4.9-5.7c5.9-21.7,12-43.4,16.9-65.3c14.7-66.7,31.7-132.5,62.1-194.2
	c6.9-14.1,12.5-28.8,18.6-43.2c1.2-2.8,3.2-6.3,2.5-8.7c-4.7-15.9,5.7-27.3,11.6-40c1.6-3.5,4.8-6.8,8.1-8.8
	c6.3-3.8,11.7-1.9,12.8,5.7c2,13.5,2,26.5-9.7,36.8c-3.6,3.2-5.8,8.3-8.1,12.8c-16.2,32.7-33.5,64.9-47.8,98.3
	c-14.6,34.1-24.5,70-30.3,106.9c-5.5,35.2-12,70.3-17.4,105.5c-2,13.5-2.2,27.2-3.1,40.8c-0.7,10.5-4.6,19.3-14.1,24.6
	c-8.4,4.7-14.2,2.3-16.7-7.2c-8.9-33.9-17.7-67.8-26.6-101.6c-0.5-1.9-1.5-3.6-2.2-5.4c-0.8,0.1-1.7,0.1-2.5,0.2
	c-1.2,5.9-1.8,11.9-3.6,17.6c-4,12.9-7.4,26.2-13.1,38.3c-3.9,8.4-11.8,13.7-22.7,12.6c-11.7-1.2-18.2-8.9-21.1-18.3
	c-6.9-22.9-13-46-19.2-69.1c-3.7-13.5-4.9-27.6-3.7-41.5L502.7,241z"/>
<path class="st0" d="M687.7,362.2c2-8.2,3.9-16.4,6.1-24.6c0.6-2.2,1.8-5.7,3.3-6c12.9-3.1,9.8-14.1,10.8-22.4
	c5.2-43.5,14.8-85.9,30.9-126.7c5.9-15.1,10.1-30.9,15.5-46.1c2.8-8,5.6-16.3,10.4-23.1c3.2-4.6,10.5-6,14.9-10.1
	c16.2-15.1,34-27.7,55.5-33.1c19.1-4.8,38.8-7.7,58.3-10.7c2.8-0.4,7.3,2.1,9.1,4.6c7.9,10.7,0.8,29.7-11.9,33.3
	c-11.5,3.3-23.2,5.8-34.4,9.9c-17.4,6.2-48.3,32.3-61.8,51.8c7.7-1.7,13.3-3,18.8-4.3c16.3-3.7,32.4-7.8,48.8-10.8
	c8.9-1.7,14.7,4.2,18.5,11.7c7.1,14,2,34-10.9,43c-1.9,1.3-4.8,1.3-7.3,1.8c-0.5-2.4-1.7-5-1.4-7.2c2.7-15.4-0.6-20-15.6-16.6
	c-17.5,4-34.4,10.2-51.4,16c-9.3,3.2-18.6,7-27.3,11.5c-4.5,2.3-10,6.3-11.4,10.6c-8.8,29-16.6,58.3-24.7,87.5
	c-0.5,1.9-0.1,4-0.1,8.5c10.1-6.6,19.1-11.7,27.2-18c21.9-17.3,46.1-30.2,74.2-30.7c16.7-0.3,33.7,4.1,50.2,7.7
	c7.5,1.6,9.4,12.8,3,17.3c-5.5,3.8-12.9,5-19.5,6.9c-1.8,0.5-4-0.4-6.1-0.7c-30.5-4.7-59.3,0.6-85.4,16.9
	c-14.6,9.1-27.6,21-41.3,31.6c-7.8,6-15.4,12.4-23.8,17.4c-5.7,3.4-12.6,4.5-19,6.6C689.4,364.6,688.5,363.4,687.7,362.2z
	 M771.8,161c19.2-19.7,36.8-37.8,55.6-57.1C804.4,100.1,771.3,134.3,771.8,161z"/>
<path class="st0" d="M924.4,449.1c15.6-23.4,31.7-46.5,46.6-70.3c18.6-29.7,25.8-62.3,19.7-97c-1.7-9.4-6.2-19-11.6-27
	c-13.4-20.1-27.8-39.4-42.1-58.9c-4.2-5.8-9.2-11-14-16.3c-8.6-9.4-18.7-18.8-16.5-32.5c3.3-20.2,10.9-38.6,29.4-50.7
	c23.9-15.6,49.5-26.2,78-27.9c16.1-1,32.2-0.7,48.3-0.4c7.4,0.2,11.9,6.2,10.6,12.5c-1.5,7.1-5.1,14.9-10.3,19.7
	c-3.9,3.6-11.6,4.9-17.3-1.3c-1.8-1.9-5.3-3-8.1-3.1c-27.4-0.9-54.7,1-80.8,9.6c-9.3,3.1-18.2,9.7-25.2,16.8
	c-10,10-5.8,23.7,7.4,38.7c23.1,26,44,53.5,57.1,86.4c12.7,32,8.6,63.5,0.5,95.3c-9.9,38.8-30.8,70.9-60,98c-3.4,3.2-6,7.2-9,10.8
	C926.2,450.7,925.3,449.9,924.4,449.1z"/>
<path class="st0" d="M799.6,393.5c-3,6.3-6.2,12.4-8.8,18.8c-4.4,10.6-10.9,21-12.3,32c-3.5,27.4,15.7,47.5,43.5,49
	c6.4,0.3,12.6,3.2,19.1,5c8.6-7.1,18.5-15.8,29.1-23.7c3.6-2.7,8.7-3.7,13.3-4.4c1-0.1,3.9,4.7,3.7,7c-0.9,9.6-9.7,11.7-16.3,16
	c-4.8,3.2-10.3,6.3-13.7,10.8c-4.3,5.7-7.5,8.9-13.6,2.6c-3.4-3.6-5.6-2.9-8.5,1.7c-2.2,3.5-7.1,7.3-11,7.5
	c-38.3,2.1-66.4-25.5-58.2-64.4c3.6-17,12.1-32.9,19-49.1c2-4.7,6.3-8.5,9.5-12.7C796.2,390.8,797.9,392.2,799.6,393.5z"/>
</svg>
